<?xml version="1.0" encoding="iso-8859-1"?>
<!-- Generator: Adobe Illustrator 19.0.0, SVG Export Plug-In . SVG Version: 6.00 Build 0)  -->
<svg version="1.1" id="Layer_1" xmlns="http://www.w3.org/2000/svg" xmlns:xlink="http://www.w3.org/1999/xlink" x="0px" y="0px"
	 viewBox="0 0 511.998 511.998" style="enable-background:new 0 0 511.998 511.998;" xml:space="preserve">
<g>
	<path style="fill:#507C5C;" d="M122.469,239.014H58.611c-8.291,0-15.011-6.721-15.011-15.011V93.183
		c0-25.596,20.824-46.418,46.418-46.418h331.965c25.596,0,46.418,20.824,46.418,46.418c0,8.291-6.721,15.011-15.011,15.011
		c-8.291,0-15.011-6.721-15.011-15.011c0-9.04-7.356-16.395-16.395-16.395H90.017c-9.04,0-16.395,7.356-16.395,16.395v115.808
		h48.849c8.291,0,15.011,6.721,15.011,15.011S130.76,239.014,122.469,239.014z"/>
	<path style="fill:#507C5C;" d="M421.983,465.234H90.017c-25.596,0-46.418-20.824-46.418-46.418c0-8.291,6.721-15.011,15.011-15.011
		s15.011,6.721,15.011,15.011c0,9.04,7.356,16.395,16.395,16.395h331.965c9.04,0,16.395-7.356,16.395-16.395V302.237
		c0-8.291,6.721-15.011,15.011-15.011c8.291,0,15.011,6.721,15.011,15.011v116.579C468.401,444.412,447.579,465.234,421.983,465.234
		z"/>
</g>
<polygon style="fill:#CFF09E;" points="413.043,132.738 496.989,189.428 413.043,246.117 "/>
<path style="fill:#507C5C;" d="M413.042,261.129c-2.414,0-4.834-0.581-7.043-1.755c-4.903-2.604-7.968-7.704-7.968-13.257v-113.38
	c0-5.553,3.065-10.651,7.968-13.257c4.904-2.606,10.846-2.292,15.445,0.815l83.945,56.689c4.133,2.791,6.609,7.453,6.609,12.44
	s-2.477,9.649-6.61,12.44l-83.945,56.689C418.916,260.264,415.984,261.129,413.042,261.129z M428.055,160.989v56.877l42.112-28.438
	L428.055,160.989z"/>
<path style="fill:#CFF09E;" d="M413.279,164.388H224.448c-16.098,0-29.148,13.049-29.148,29.148v101.672H15.011v52.403h203.544
	c16.098,0,29.148-13.049,29.148-29.148V216.789h165.576V164.388z"/>
<path style="fill:#507C5C;" d="M218.556,362.622H15.011C6.721,362.622,0,355.902,0,347.611v-52.403
	c0-8.291,6.721-15.011,15.011-15.011H180.29v-86.661c0-24.35,19.809-44.159,44.159-44.159H413.28
	c8.291,0,15.011,6.721,15.011,15.011v52.402c0,8.291-6.721,15.011-15.011,15.011H262.715v86.661
	C262.715,342.813,242.904,362.622,218.556,362.622z M30.023,332.599h188.533c7.794,0,14.136-6.342,14.136-14.136V216.791
	c0-8.291,6.721-15.011,15.011-15.011h150.566v-22.379h-173.82c-7.794,0-14.136,6.342-14.136,14.136v101.672
	c0,8.291-6.721,15.011-15.011,15.011H30.023V332.599z"/>
<g>
</g>
<g>
</g>
<g>
</g>
<g>
</g>
<g>
</g>
<g>
</g>
<g>
</g>
<g>
</g>
<g>
</g>
<g>
</g>
<g>
</g>
<g>
</g>
<g>
</g>
<g>
</g>
<g>
</g>
</svg>
